<?xml version="1.0" encoding="iso-8859-1"?>
<!-- Generator: Adobe Illustrator 16.0.0, SVG Export Plug-In . SVG Version: 6.00 Build 0)  -->
<!DOCTYPE svg PUBLIC "-//W3C//DTD SVG 1.1//EN" "http://www.w3.org/Graphics/SVG/1.1/DTD/svg11.dtd">
<svg version="1.1" id="Capa_1" xmlns="http://www.w3.org/2000/svg" xmlns:xlink="http://www.w3.org/1999/xlink" x="0px" y="0px"
	 width="35.5px" height="35.5px" viewBox="0 0 35.5 35.5" style="enable-background:new 0 0 35.5 35.5;" xml:space="preserve">
<g>
	<path d="M25.75,5.775v14.827c0,0.826-0.672,1.5-1.5,1.5s-1.5-0.674-1.5-1.5V5.775c0-1.53-1.57-2.775-3.5-2.775h-3
		c-1.93,0-3.5,1.245-3.5,2.775v23.946c0,1.442,1.394,2.633,3.168,2.766c1.773-0.133,3.166-1.321,3.166-2.766V16.113h-1.832v7.624
		c0,0.828-0.672,1.5-1.5,1.5s-1.5-0.672-1.5-1.5v-9.124c0-0.828,0.672-1.5,1.5-1.5h4.832c0.828,0,1.5,0.672,1.5,1.5v15.108
		c0,2.82-2.285,5.176-5.295,5.68c-0.168,0.062-0.35,0.1-0.539,0.1h-0.666c-0.188,0-0.371-0.035-0.537-0.1
		c-3.012-0.504-5.297-2.857-5.297-5.678V5.775C9.75,2.589,12.666,0,16.25,0h3C22.834,0,25.75,2.591,25.75,5.775z"/>
</g>
<g>
</g>
<g>
</g>
<g>
</g>
<g>
</g>
<g>
</g>
<g>
</g>
<g>
</g>
<g>
</g>
<g>
</g>
<g>
</g>
<g>
</g>
<g>
</g>
<g>
</g>
<g>
</g>
<g>
</g>
</svg>
