<?xml version="1.0" encoding="iso-8859-1"?>
<!-- Generator: Adobe Illustrator 16.0.0, SVG Export Plug-In . SVG Version: 6.00 Build 0)  -->
<!DOCTYPE svg PUBLIC "-//W3C//DTD SVG 1.1//EN" "http://www.w3.org/Graphics/SVG/1.1/DTD/svg11.dtd">
<svg version="1.1" id="Capa_1" xmlns="http://www.w3.org/2000/svg" xmlns:xlink="http://www.w3.org/1999/xlink" x="0px" y="0px"
	 width="36.457px" height="36.457px" viewBox="0 0 36.457 36.457" style="enable-background:new 0 0 36.457 36.457;"
	 xml:space="preserve">
<g>
	<path d="M32.229,6.625h-6.939C25.049,2.934,21.98,0,18.229,0c-3.751,0-6.822,2.933-7.061,6.624H4.229c-0.829,0-1.5,0.671-1.5,1.5
		s0.671,1.5,1.5,1.5h0.833v20.333c0,3.584,2.853,6.5,6.36,6.5h13.612c3.508,0,6.36-2.916,6.36-6.5V9.625h0.835
		c0.828,0,1.5-0.671,1.5-1.5S33.059,6.625,32.229,6.625z M12.062,29.062c0,0.551-0.448,1-1,1c-0.552,0-1-0.449-1-1v-15.5
		c0-0.552,0.448-1,1-1c0.552,0,1,0.448,1,1V29.062z M19.395,29.062c0,0.551-0.447,1-1,1c-0.552,0-1-0.449-1-1v-15.5
		c0-0.552,0.448-1,1-1c0.552,0,1,0.448,1,1V29.062z M14.19,6.625c0.231-2.033,1.943-3.624,4.038-3.624
		c2.094,0,3.805,1.591,4.037,3.624H14.19z M26.729,29.062c0,0.551-0.447,1-1,1c-0.551,0-1-0.449-1-1v-15.5c0-0.552,0.449-1,1-1
		c0.553,0,1,0.448,1,1V29.062z"/>
</g>
<g>
</g>
<g>
</g>
<g>
</g>
<g>
</g>
<g>
</g>
<g>
</g>
<g>
</g>
<g>
</g>
<g>
</g>
<g>
</g>
<g>
</g>
<g>
</g>
<g>
</g>
<g>
</g>
<g>
</g>
</svg>
