<?xml version="1.0" encoding="iso-8859-1"?>
<!-- Generator: Adobe Illustrator 16.0.0, SVG Export Plug-In . SVG Version: 6.00 Build 0)  -->
<!DOCTYPE svg PUBLIC "-//W3C//DTD SVG 1.1//EN" "http://www.w3.org/Graphics/SVG/1.1/DTD/svg11.dtd">
<svg version="1.1" id="Capa_1" xmlns="http://www.w3.org/2000/svg" xmlns:xlink="http://www.w3.org/1999/xlink" x="0px" y="0px"
	 width="36.25px" height="36.25px" viewBox="0 0 36.25 36.25" style="enable-background:new 0 0 36.25 36.25;" xml:space="preserve"
	>
<g>
	<path d="M32.553,17.221c-0.582-3.167-3.1-5.689-6.267-6.274C24,7.182,19.938,4.875,15.5,4.875c-6.961,0-12.625,5.664-12.625,12.625
		c0,0.097,0.001,0.193,0.004,0.289C1.061,19.229,0,21.396,0,23.75c0,4.205,3.42,7.625,7.625,7.625h21
		c4.205,0,7.625-3.42,7.625-7.625C36.25,21.068,34.824,18.589,32.553,17.221z M28.625,28.376h-21C5.075,28.376,3,26.301,3,23.751
		c0-1.616,0.827-3.088,2.212-3.938c0.487-0.299,0.761-0.849,0.708-1.416c-0.027-0.295-0.046-0.592-0.046-0.895
		c0-5.307,4.318-9.625,9.625-9.625c3.584,0,6.851,1.977,8.522,5.159c0.24,0.458,0.699,0.76,1.215,0.798
		c2.361,0.176,4.267,2.091,4.431,4.454c0.039,0.548,0.374,1.03,0.873,1.26c1.646,0.752,2.708,2.401,2.708,4.204
		C33.25,26.301,31.176,28.376,28.625,28.376z M19.432,22.402h2.729l-5.534,5.533l-5.534-5.533h2.729V10.809h5.61V22.402
		L19.432,22.402z"/>
</g>
<g>
</g>
<g>
</g>
<g>
</g>
<g>
</g>
<g>
</g>
<g>
</g>
<g>
</g>
<g>
</g>
<g>
</g>
<g>
</g>
<g>
</g>
<g>
</g>
<g>
</g>
<g>
</g>
<g>
</g>
</svg>
