<?xml version="1.0" encoding="iso-8859-1"?>
<!-- Generator: Adobe Illustrator 16.0.0, SVG Export Plug-In . SVG Version: 6.00 Build 0)  -->
<!DOCTYPE svg PUBLIC "-//W3C//DTD SVG 1.1//EN" "http://www.w3.org/Graphics/SVG/1.1/DTD/svg11.dtd">
<svg version="1.1" id="Capa_1" xmlns="http://www.w3.org/2000/svg" xmlns:xlink="http://www.w3.org/1999/xlink" x="0px" y="0px"
	 width="36.25px" height="36.25px" viewBox="0 0 36.25 36.25" style="enable-background:new 0 0 36.25 36.25;" xml:space="preserve"
	>
<g>
	<path d="M32.555,17.219c-0.582-3.167-3.102-5.688-6.269-6.272C24.001,7.182,19.936,4.875,15.5,4.875
		c-6.962,0-12.625,5.663-12.625,12.625c0,0.097,0.001,0.192,0.004,0.289C1.062,19.227,0,21.395,0,23.75
		c0,4.204,3.421,7.625,7.625,7.625h21c4.204,0,7.625-3.421,7.625-7.625C36.25,21.064,34.824,18.586,32.555,17.219z M28.625,28.373
		h-21C5.075,28.373,3,26.298,3,23.748c0-1.616,0.827-3.088,2.212-3.938c0.488-0.301,0.764-0.852,0.709-1.42
		c-0.027-0.295-0.046-0.592-0.046-0.893c0-5.309,4.317-9.625,9.625-9.625c3.585,0,6.852,1.977,8.521,5.158
		c0.242,0.457,0.701,0.76,1.217,0.799c2.361,0.176,4.267,2.091,4.432,4.454c0.038,0.548,0.373,1.029,0.873,1.26
		c1.646,0.751,2.708,2.4,2.708,4.204C33.25,26.298,31.175,28.373,28.625,28.373z M15.459,10.973l5.533,5.533h-2.729v9.523h-5.61
		v-9.523H9.924L15.459,10.973z"/>
</g>
<g>
</g>
<g>
</g>
<g>
</g>
<g>
</g>
<g>
</g>
<g>
</g>
<g>
</g>
<g>
</g>
<g>
</g>
<g>
</g>
<g>
</g>
<g>
</g>
<g>
</g>
<g>
</g>
<g>
</g>
</svg>
